<svg width="23" height="23" viewBox="0 0 23 23" xmlns="http://www.w3.org/2000/svg"><g><path d="M20.1369 8.41964C20.0793 8.24983 19.9731 8.10061 19.8317 7.99043C19.6902 7.88024 19.5195 7.81389 19.3408 7.79959L14.1116 7.38408L11.8488 2.37506C11.7767 2.21373 11.6595 2.07671 11.5113 1.98052C11.3631 1.88434 11.1902 1.8331 11.0135 1.83301C10.8368 1.83291 10.6638 1.88395 10.5155 1.97998C10.3672 2.076 10.2498 2.2129 10.1776 2.37415L7.91477 7.38408L2.68562 7.79959C2.50993 7.8135 2.34196 7.87774 2.20183 7.98462C2.06169 8.0915 1.95531 8.23648 1.89541 8.40224C1.83552 8.56799 1.82464 8.74749 1.86409 8.91926C1.90354 9.09103 1.99164 9.2478 2.11785 9.37081L5.98216 13.1379L4.61548 19.0559C4.57398 19.235 4.58728 19.4225 4.65365 19.594C4.72003 19.7655 4.83641 19.913 4.98769 20.0175C5.13898 20.1221 5.31819 20.1787 5.50206 20.1801C5.68594 20.1815 5.86598 20.1276 6.01885 20.0254L11.0132 16.6958L16.0075 20.0254C16.1638 20.1291 16.348 20.1825 16.5355 20.1784C16.723 20.1743 16.9047 20.1129 17.0563 20.0024C17.2078 19.8919 17.3219 19.7377 17.3832 19.5604C17.4444 19.3832 17.4499 19.1914 17.399 19.0109L15.7213 13.1406L19.8819 9.39649C20.1543 9.15067 20.2543 8.76727 20.1369 8.41964Z" fill="#F3CD03"/></g></svg>